<svg xmlns="http://www.w3.org/2000/svg" viewBox="0 0 120 120" fill="none" stroke="#B08D3E" stroke-width="1.5" stroke-linecap="round" stroke-linejoin="round">
  <!-- Ground line -->
  <path d="M30 88 Q60 86 90 88" />
  <!-- Stem -->
  <path d="M60 88 L60 52" />
  <!-- Left leaf -->
  <path d="M60 62 Q48 54 44 46 Q52 48 60 58" />
  <!-- Right leaf -->
  <path d="M60 54 Q72 46 76 38 Q68 40 60 50" />
  <!-- Left leaf vein -->
  <path d="M60 60 Q52 54 48 49" />
  <!-- Right leaf vein -->
  <path d="M60 52 Q68 46 72 41" />
  <!-- Radiating lines above (growth/light) -->
  <line x1="60" y1="30" x2="60" y2="22" />
  <line x1="48" y1="34" x2="43" y2="27" />
  <line x1="72" y1="34" x2="77" y2="27" />
  <line x1="40" y1="42" x2="34" y2="38" />
  <line x1="80" y1="42" x2="86" y2="38" />
  <!-- Small dots at ray tips -->
  <circle cx="60" cy="20" r="1.2" fill="#B08D3E" stroke="none" />
  <circle cx="42" cy="25" r="1" fill="#B08D3E" stroke="none" />
  <circle cx="78" cy="25" r="1" fill="#B08D3E" stroke="none" />
</svg>
