<svg xmlns="http://www.w3.org/2000/svg" viewBox="0 0 120 120" fill="none" stroke="#B08D3E" stroke-width="1.5" stroke-linecap="round" stroke-linejoin="round">
  <!-- Open book - left page -->
  <path d="M60 85 L60 35" />
  <path d="M60 35 Q45 32 25 36 L25 86 Q45 82 60 85Z" />
  <!-- Open book - right page -->
  <path d="M60 35 Q75 32 95 36 L95 86 Q75 82 60 85Z" />
  <!-- Page lines left -->
  <line x1="34" y1="46" x2="54" y2="43" />
  <line x1="34" y1="54" x2="54" y2="51" />
  <line x1="34" y1="62" x2="54" y2="59" />
  <line x1="34" y1="70" x2="54" y2="67" />
  <!-- Page lines right -->
  <line x1="66" y1="43" x2="86" y2="46" />
  <line x1="66" y1="51" x2="86" y2="54" />
  <line x1="66" y1="59" x2="86" y2="62" />
  <line x1="66" y1="67" x2="86" y2="70" />
  <!-- Ribbon bookmark -->
  <path d="M72 86 L72 28 Q72 22 68 20 Q65 19 64 22 Q62 26 63 28" />
  <!-- Ribbon curl at top -->
  <path d="M64 22 Q60 18 62 14 Q64 10 68 12 Q71 14 68 20" />
</svg>
