<svg xmlns="http://www.w3.org/2000/svg" viewBox="0 0 200 200" fill="none" stroke="#B08D3E" stroke-width="1.5" stroke-linecap="round" stroke-linejoin="round">
  <!-- Outermost decorative circle -->
  <circle cx="100" cy="100" r="90" />
  <!-- Outer geometric ring with scallops -->
  <circle cx="100" cy="100" r="84" />
  <!-- Scallop pattern on outer ring (16 arcs) -->
  <path d="M100,16 A6,6 0 0,1 106,10" />
  <path d="M133,19 A6,6 0 0,1 138,14" />
  <path d="M161,38 A6,6 0 0,1 167,34" />
  <path d="M180,66 A6,6 0 0,1 186,62" />
  <path d="M184,100 A6,6 0 0,1 190,96" />
  <!-- Second concentric ring -->
  <circle cx="100" cy="100" r="72" />
  <!-- Islamic geometric pattern ring - interlocking arcs -->
  <path d="M100,28 Q115,40 128,28" />
  <path d="M128,28 Q140,42 152,32" />
  <path d="M152,32 Q162,48 172,40" />
  <path d="M172,40 Q178,58 184,52" />
  <path d="M28,100 Q40,85 28,72" />
  <path d="M172,100 Q160,85 172,72" />
  <path d="M100,172 Q85,160 72,172" />
  <path d="M100,172 Q115,160 128,172" />
  <!-- Third concentric ring -->
  <circle cx="100" cy="100" r="58" />
  <!-- Inner decorative ring with pointed arches -->
  <path d="M100,42 Q108,52 116,42" />
  <path d="M116,42 Q126,50 132,44" />
  <path d="M42,100 Q52,92 42,84" />
  <path d="M158,100 Q148,92 158,84" />
  <path d="M100,158 Q92,148 84,158" />
  <path d="M100,158 Q108,148 116,158" />
  <!-- Innermost geometric ring -->
  <circle cx="100" cy="100" r="42" />
  <!-- Eight-pointed star frame inside -->
  <polygon points="100,62 112,76 138,76 118,88 126,112 100,98 74,112 82,88 62,76 88,76" />
  <!-- Central open Quran book motif -->
  <!-- Book spine -->
  <line x1="100" y1="88" x2="100" y2="112" />
  <!-- Left page -->
  <path d="M100,90 Q90,88 82,92 L82,110 Q90,106 100,110Z" />
  <!-- Right page -->
  <path d="M100,90 Q110,88 118,92 L118,110 Q110,106 100,110Z" />
  <!-- Page lines left -->
  <line x1="86" y1="96" x2="96" y2="94" />
  <line x1="86" y1="100" x2="96" y2="98" />
  <line x1="86" y1="104" x2="96" y2="102" />
  <!-- Page lines right -->
  <line x1="104" y1="94" x2="114" y2="96" />
  <line x1="104" y1="98" x2="114" y2="100" />
  <line x1="104" y1="102" x2="114" y2="104" />
  <!-- Decorative dots at cardinal and ordinal points -->
  <circle cx="100" cy="6" r="2" fill="#B08D3E" stroke="none" />
  <circle cx="194" cy="100" r="2" fill="#B08D3E" stroke="none" />
  <circle cx="100" cy="194" r="2" fill="#B08D3E" stroke="none" />
  <circle cx="6" cy="100" r="2" fill="#B08D3E" stroke="none" />
  <circle cx="164" cy="36" r="1.5" fill="#B08D3E" stroke="none" />
  <circle cx="164" cy="164" r="1.5" fill="#B08D3E" stroke="none" />
  <circle cx="36" cy="164" r="1.5" fill="#B08D3E" stroke="none" />
  <circle cx="36" cy="36" r="1.5" fill="#B08D3E" stroke="none" />
  <!-- Radiating lines from outermost circle -->
  <line x1="100" y1="2" x2="100" y2="8" />
  <line x1="198" y1="100" x2="192" y2="100" />
  <line x1="100" y1="198" x2="100" y2="192" />
  <line x1="2" y1="100" x2="8" y2="100" />
</svg>
