<svg xmlns="http://www.w3.org/2000/svg" viewBox="0 0 24 24" fill="none">
  <!-- SÜKÛN Tab: Quran - Open Book with Bookmark Ribbon -->
  <path d="M2 4C2 4 5 3 8 3C11 3 12 4 12 4V20C12 20 11 19.5 8 19.5C5 19.5 2 20 2 20V4Z" stroke="#B08D3E" stroke-width="1.5" stroke-linecap="round" stroke-linejoin="round"/>
  <path d="M22 4C22 4 19 3 16 3C13 3 12 4 12 4V20C12 20 13 19.5 16 19.5C19 19.5 22 20 22 20V4Z" stroke="#B08D3E" stroke-width="1.5" stroke-linecap="round" stroke-linejoin="round"/>
  <!-- Page lines -->
  <line x1="5" y1="7" x2="9" y2="7" stroke="#B08D3E" stroke-width="0.7" stroke-linecap="round" opacity="0.3"/>
  <line x1="5" y1="9.5" x2="9" y2="9.5" stroke="#B08D3E" stroke-width="0.7" stroke-linecap="round" opacity="0.3"/>
  <line x1="5" y1="12" x2="9" y2="12" stroke="#B08D3E" stroke-width="0.7" stroke-linecap="round" opacity="0.3"/>
  <line x1="15" y1="7" x2="19" y2="7" stroke="#B08D3E" stroke-width="0.7" stroke-linecap="round" opacity="0.3"/>
  <line x1="15" y1="9.5" x2="19" y2="9.5" stroke="#B08D3E" stroke-width="0.7" stroke-linecap="round" opacity="0.3"/>
  <line x1="15" y1="12" x2="19" y2="12" stroke="#B08D3E" stroke-width="0.7" stroke-linecap="round" opacity="0.3"/>
  <!-- Bookmark ribbon -->
  <path d="M17 3V8L18.5 7L20 8V3" stroke="#B08D3E" stroke-width="1" stroke-linecap="round" stroke-linejoin="round" opacity="0.5"/>
</svg>