<svg xmlns="http://www.w3.org/2000/svg" viewBox="0 0 24 24" width="24" height="24" fill="none">
  <!-- Person silhouette in octagonal Islamic frame -->
  <!-- Secondary: octagon fill -->
  <polygon points="8,2 16,2 22,8 22,16 16,22 8,22 2,16 2,8" fill="#B08D3E" opacity="0.12"/>
  <!-- Primary: octagonal frame -->
  <polygon points="8,2 16,2 22,8 22,16 16,22 8,22 2,16 2,8" stroke="#B08D3E" stroke-width="1.5" stroke-linejoin="round"/>
  <!-- Person head -->
  <circle cx="12" cy="9.5" r="2.8" fill="#B08D3E" opacity="0.35" stroke="#B08D3E" stroke-width="1.5"/>
  <!-- Person shoulders/body -->
  <path d="M7 19C7 16.2 9.2 14 12 14C14.8 14 17 16.2 17 19" stroke="#B08D3E" stroke-width="1.5" stroke-linecap="round"/>
  <path d="M7 19C7 16.2 9.2 14 12 14C14.8 14 17 16.2 17 19" fill="#B08D3E" opacity="0.2"/>
</svg>
