<svg xmlns="http://www.w3.org/2000/svg" viewBox="0 0 24 24" width="24" height="24" fill="none">
  <!-- Heart with small plus sign - Health Dua -->
  <!-- Secondary: heart fill -->
  <path d="M12 20L4.5 12.5C2.5 10.5 2.5 7 4.5 5C6.5 3 10 3 12 5.5C14 3 17.5 3 19.5 5C21.5 7 21.5 10.5 19.5 12.5L12 20Z" fill="#B08D3E" opacity="0.18"/>
  <!-- Primary: heart outline -->
  <path d="M12 20L4.5 12.5C2.5 10.5 2.5 7 4.5 5C6.5 3 10 3 12 5.5C14 3 17.5 3 19.5 5C21.5 7 21.5 10.5 19.5 12.5L12 20Z" stroke="#B08D3E" stroke-width="1.5" stroke-linejoin="round"/>
  <!-- Plus sign inside heart -->
  <line x1="12" y1="9" x2="12" y2="14" stroke="#B08D3E" stroke-width="1.5" stroke-linecap="round" opacity="0.5"/>
  <line x1="9.5" y1="11.5" x2="14.5" y2="11.5" stroke="#B08D3E" stroke-width="1.5" stroke-linecap="round" opacity="0.5"/>
</svg>
