<svg xmlns="http://www.w3.org/2000/svg" viewBox="0 0 24 24" width="24" height="24" fill="none">
  <!-- Open palms with light/rays above - Gratitude Dua -->
  <!-- Secondary: light glow -->
  <ellipse cx="12" cy="5" rx="4" ry="2.5" fill="#B08D3E" opacity="0.12"/>
  <!-- Light rays above -->
  <line x1="12" y1="2" x2="12" y2="5" stroke="#B08D3E" stroke-width="1.5" stroke-linecap="round" opacity="0.7"/>
  <line x1="8.5" y1="3" x2="9.5" y2="5.5" stroke="#B08D3E" stroke-width="1.2" stroke-linecap="round" opacity="0.45"/>
  <line x1="15.5" y1="3" x2="14.5" y2="5.5" stroke="#B08D3E" stroke-width="1.2" stroke-linecap="round" opacity="0.45"/>
  <line x1="6.5" y1="5" x2="8" y2="6.5" stroke="#B08D3E" stroke-width="1" stroke-linecap="round" opacity="0.3"/>
  <line x1="17.5" y1="5" x2="16" y2="6.5" stroke="#B08D3E" stroke-width="1" stroke-linecap="round" opacity="0.3"/>
  <!-- Left open palm -->
  <path d="M4 21L5 15L7 10C7 9 7.5 8.5 8.5 9L9 10L9.5 8C9.5 7 10 7 10.5 7.5L11 9.5L11 12" stroke="#B08D3E" stroke-width="1.5" stroke-linecap="round" stroke-linejoin="round"/>
  <path d="M4 21L5 15L7 10L8.5 9L9 10L9.5 8L10.5 7.5L11 9.5V12" fill="#B08D3E" opacity="0.15"/>
  <!-- Right open palm -->
  <path d="M20 21L19 15L17 10C17 9 16.5 8.5 15.5 9L15 10L14.5 8C14.5 7 14 7 13.5 7.5L13 9.5L13 12" stroke="#B08D3E" stroke-width="1.5" stroke-linecap="round" stroke-linejoin="round"/>
  <path d="M20 21L19 15L17 10L15.5 9L15 10L14.5 8L13.5 7.5L13 9.5V12" fill="#B08D3E" opacity="0.15"/>
  <!-- Small connecting base -->
  <path d="M4 21C8 19 16 19 20 21" stroke="#B08D3E" stroke-width="1.2" stroke-linecap="round" opacity="0.3"/>
</svg>
