<svg xmlns="http://www.w3.org/2000/svg" viewBox="0 0 24 24" width="24" height="24" fill="none">
  <!-- Crescent moon with single star - Evening Dua -->
  <!-- Secondary: moon glow -->
  <circle cx="10" cy="12" r="7" fill="#B08D3E" opacity="0.1"/>
  <!-- Primary: crescent moon -->
  <path d="M10 4C6.7 4 4 6.7 4 10C4 13.3 6.7 16 10 16C11.5 16 12.9 15.4 14 14.5C12.2 14.5 10.5 13.5 9.5 12C8.5 10.5 8.3 8.7 9 7C9.3 6.2 9.8 5.5 10.5 4.9C10.3 4.9 10.2 4.9 10 4.9" stroke="#B08D3E" stroke-width="1.5" stroke-linecap="round" stroke-linejoin="round"/>
  <path d="M10 5C7.2 5 5 7.8 5 10.5C5 13.2 7.2 15 10 15C11.2 15 12.3 14.6 13.2 13.8C11.6 13.5 10.2 12.3 9.6 10.8C9 9.3 9.2 7.7 10 6.5" fill="#B08D3E" opacity="0.25"/>
  <!-- Star -->
  <path d="M18 6L18.8 7.8L20.8 8L19.3 9.3L19.7 11.3L18 10.3L16.3 11.3L16.7 9.3L15.2 8L17.2 7.8L18 6Z" fill="#B08D3E" opacity="0.45" stroke="#B08D3E" stroke-width="1" stroke-linejoin="round"/>
  <!-- Small twinkle dots -->
  <circle cx="16" cy="4" r="0.6" fill="#B08D3E" opacity="0.3"/>
  <circle cx="20" cy="13" r="0.5" fill="#B08D3E" opacity="0.25"/>
</svg>
