<svg xmlns="http://www.w3.org/2000/svg" viewBox="0 0 24 24" width="24" height="24" fill="none">
  <!-- Simple bowl with steam wisps - Meal Dua -->
  <!-- Secondary: bowl interior -->
  <path d="M4 13C4 13 5 18 12 18C19 18 20 13 20 13" fill="#B08D3E" opacity="0.15"/>
  <!-- Primary: bowl shape -->
  <path d="M3 13C3 13 4.5 20 12 20C19.5 20 21 13 21 13" stroke="#B08D3E" stroke-width="1.5" stroke-linecap="round"/>
  <!-- Bowl rim -->
  <line x1="2" y1="13" x2="22" y2="13" stroke="#B08D3E" stroke-width="1.5" stroke-linecap="round"/>
  <!-- Steam wisps -->
  <path d="M8 10C8 8.5 9.5 8.5 9.5 7C9.5 5.5 8 5.5 8 4" stroke="#B08D3E" stroke-width="1.2" stroke-linecap="round" opacity="0.4"/>
  <path d="M12 9C12 7.5 13.5 7.5 13.5 6C13.5 4.5 12 4.5 12 3" stroke="#B08D3E" stroke-width="1.2" stroke-linecap="round" opacity="0.5"/>
  <path d="M16 10C16 8.5 17.5 8.5 17.5 7C17.5 5.5 16 5.5 16 4" stroke="#B08D3E" stroke-width="1.2" stroke-linecap="round" opacity="0.35"/>
</svg>
