<svg xmlns="http://www.w3.org/2000/svg" viewBox="0 0 100 100" width="100" height="100">
  <!--
    Subtle noise/grain texture pattern.
    Random tiny dots at varying opacities for paper/parchment feel.
    Gold #B08D3E. Designed to overlay at low opacity.
  -->
  <g fill="#B08D3E" stroke="none">
    <circle cx="63.8" cy="2.98" r="0.44" opacity="0.029"/>
    <circle cx="73.41" cy="67.49" r="0.75" opacity="0.023"/>
    <circle cx="42.27" cy="3.45" r="0.41" opacity="0.04"/>
    <circle cx="3.13" cy="20.18" r="0.62" opacity="0.042"/>
    <circle cx="22.32" cy="58.84" r="0.7" opacity="0.02"/>
    <circle cx="80.28" cy="69.62" r="0.47" opacity="0.026"/>
    <circle cx="95.26" cy="33.82" r="0.35" opacity="0.024"/>
    <circle cx="84.4" cy="60.27" r="0.7" opacity="0.049"/>
    <circle cx="53.59" cy="96.84" r="0.49" opacity="0.042"/>
    <circle cx="82.61" cy="61.73" r="0.73" opacity="0.043"/>
    <circle cx="70.25" cy="5.04" r="0.41" opacity="0.032"/>
    <circle cx="8.4" cy="23.55" r="0.35" opacity="0.031"/>
    <circle cx="63.43" cy="36.62" r="0.49" opacity="0.028"/>
    <circle cx="26.93" cy="93.23" r="0.62" opacity="0.044"/>
    <circle cx="17.44" cy="72.68" r="0.38" opacity="0.035"/>
    <circle cx="98.46" cy="63.86" r="0.58" opacity="0.047"/>
    <circle cx="83.94" cy="77.32" r="0.41" opacity="0.021"/>
    <circle cx="31.73" cy="27.01" r="0.41" opacity="0.058"/>
    <circle cx="87.26" cy="31.65" r="0.63" opacity="0.036"/>
    <circle cx="91.04" cy="45.93" r="0.43" opacity="0.03"/>
    <circle cx="56.08" cy="26.51" r="0.59" opacity="0.056"/>
    <circle cx="40.04" cy="22.21" r="0.8" opacity="0.04"/>
    <circle cx="9.5" cy="5.16" r="0.35" opacity="0.045"/>
    <circle cx="78.92" cy="42.29" r="0.33" opacity="0.035"/>
    <circle cx="99.12" cy="52.88" r="0.79" opacity="0.054"/>
    <circle cx="1.64" cy="71.85" r="0.64" opacity="0.041"/>
    <circle cx="26.92" cy="63.96" r="0.36" opacity="0.037"/>
    <circle cx="45.42" cy="94.93" r="0.74" opacity="0.031"/>
    <circle cx="50.06" cy="18.19" r="0.76" opacity="0.055"/>
    <circle cx="30.05" cy="63.76" r="0.6" opacity="0.026"/>
    <circle cx="75.99" cy="53.9" r="0.69" opacity="0.041"/>
    <circle cx="0.56" cy="32.59" r="0.31" opacity="0.057"/>
    <circle cx="87.49" cy="82.83" r="0.45" opacity="0.022"/>
    <circle cx="87.42" cy="94.25" r="0.34" opacity="0.039"/>
    <circle cx="7.35" cy="75.8" r="0.68" opacity="0.025"/>
    <circle cx="47.55" cy="54.93" r="0.43" opacity="0.055"/>
    <circle cx="42.39" cy="21.47" r="0.57" opacity="0.049"/>
    <circle cx="20.41" cy="31.36" r="0.8" opacity="0.046"/>
    <circle cx="43.87" cy="51.74" r="0.36" opacity="0.029"/>
    <circle cx="33.97" cy="58.74" r="0.42" opacity="0.029"/>
    <circle cx="7.53" cy="62.98" r="0.41" opacity="0.056"/>
    <circle cx="85.6" cy="7.51" r="0.42" opacity="0.047"/>
    <circle cx="21.71" cy="13.6" r="0.77" opacity="0.043"/>
    <circle cx="47.29" cy="78.18" r="0.7" opacity="0.028"/>
    <circle cx="10.1" cy="43.17" r="0.51" opacity="0.039"/>
    <circle cx="72.68" cy="67.16" r="0.79" opacity="0.024"/>
    <circle cx="40.36" cy="34.09" r="0.73" opacity="0.03"/>
    <circle cx="19.33" cy="44.91" r="0.51" opacity="0.031"/>
    <circle cx="25.23" cy="91.9" r="0.52" opacity="0.054"/>
    <circle cx="54.98" cy="5.51" r="0.8" opacity="0.053"/>
    <circle cx="96.43" cy="92.21" r="0.72" opacity="0.027"/>
    <circle cx="48.58" cy="21.66" r="0.5" opacity="0.022"/>
    <circle cx="38.02" cy="98.05" r="0.43" opacity="0.051"/>
    <circle cx="45.55" cy="42.38" r="0.78" opacity="0.06"/>
    <circle cx="55.52" cy="71.62" r="0.38" opacity="0.032"/>
    <circle cx="96.4" cy="57.84" r="0.57" opacity="0.05"/>
    <circle cx="6.16" cy="58.33" r="0.55" opacity="0.054"/>
    <circle cx="16.09" cy="95.62" r="0.34" opacity="0.027"/>
    <circle cx="59.41" cy="67.35" r="0.42" opacity="0.025"/>
    <circle cx="88.64" cy="24.88" r="0.6" opacity="0.045"/>
    <circle cx="42.0" cy="58.28" r="0.56" opacity="0.057"/>
    <circle cx="20.72" cy="71.4" r="0.42" opacity="0.036"/>
    <circle cx="67.0" cy="30.2" r="0.46" opacity="0.05"/>
    <circle cx="7.68" cy="45.87" r="0.8" opacity="0.06"/>
    <circle cx="7.75" cy="21.6" r="0.43" opacity="0.057"/>
    <circle cx="87.71" cy="87.55" r="0.48" opacity="0.026"/>
    <circle cx="83.04" cy="70.15" r="0.61" opacity="0.059"/>
    <circle cx="65.24" cy="1.27" r="0.71" opacity="0.032"/>
    <circle cx="66.18" cy="93.45" r="0.37" opacity="0.025"/>
    <circle cx="11.1" cy="55.27" r="0.44" opacity="0.044"/>
    <circle cx="71.54" cy="20.66" r="0.62" opacity="0.031"/>
    <circle cx="48.86" cy="90.13" r="0.72" opacity="0.024"/>
    <circle cx="42.43" cy="27.89" r="0.3" opacity="0.051"/>
    <circle cx="63.57" cy="26.43" r="0.67" opacity="0.042"/>
    <circle cx="42.84" cy="1.46" r="0.34" opacity="0.055"/>
    <circle cx="89.99" cy="54.51" r="0.72" opacity="0.043"/>
    <circle cx="15.16" cy="13.12" r="0.45" opacity="0.056"/>
    <circle cx="79.32" cy="85.71" r="0.75" opacity="0.028"/>
    <circle cx="25.2" cy="10.68" r="0.69" opacity="0.055"/>
    <circle cx="40.73" cy="61.95" r="0.38" opacity="0.057"/>
    <circle cx="86.1" cy="97.14" r="0.71" opacity="0.055"/>
    <circle cx="2.95" cy="73.42" r="0.47" opacity="0.057"/>
    <circle cx="79.92" cy="86.04" r="0.71" opacity="0.031"/>
    <circle cx="78.45" cy="11.2" r="0.74" opacity="0.054"/>
    <circle cx="22.52" cy="81.34" r="0.53" opacity="0.032"/>
    <circle cx="79.24" cy="23.03" r="0.31" opacity="0.028"/>
    <circle cx="33.0" cy="86.07" r="0.78" opacity="0.031"/>
    <circle cx="64.01" cy="40.07" r="0.79" opacity="0.041"/>
    <circle cx="93.48" cy="11.92" r="0.79" opacity="0.027"/>
    <circle cx="95.79" cy="26.78" r="0.35" opacity="0.037"/>
    <circle cx="72.63" cy="31.55" r="0.6" opacity="0.04"/>
    <circle cx="38.63" cy="57.58" r="0.43" opacity="0.048"/>
    <circle cx="0.67" cy="92.13" r="0.57" opacity="0.049"/>
    <circle cx="73.95" cy="66.89" r="0.48" opacity="0.023"/>
    <circle cx="66.26" cy="33.19" r="0.46" opacity="0.054"/>
    <circle cx="71.76" cy="30.23" r="0.45" opacity="0.036"/>
    <circle cx="40.34" cy="29.77" r="0.36" opacity="0.037"/>
    <circle cx="93.6" cy="67.55" r="0.75" opacity="0.045"/>
    <circle cx="30.29" cy="54.75" r="0.3" opacity="0.031"/>
    <circle cx="43.06" cy="57.92" r="0.63" opacity="0.039"/>
    <circle cx="44.27" cy="21.66" r="0.54" opacity="0.056"/>
    <circle cx="79.31" cy="17.3" r="0.34" opacity="0.041"/>
    <circle cx="63.16" cy="33.68" r="0.71" opacity="0.05"/>
    <circle cx="67.11" cy="22.74" r="0.4" opacity="0.021"/>
    <circle cx="24.74" cy="47.54" r="0.72" opacity="0.023"/>
    <circle cx="41.53" cy="62.85" r="0.4" opacity="0.048"/>
    <circle cx="49.44" cy="24.65" r="0.63" opacity="0.02"/>
    <circle cx="74.85" cy="76.73" r="0.35" opacity="0.037"/>
    <circle cx="17.91" cy="95.34" r="0.56" opacity="0.022"/>
    <circle cx="25.17" cy="84.49" r="0.53" opacity="0.052"/>
    <circle cx="66.59" cy="98.3" r="0.6" opacity="0.058"/>
    <circle cx="88.75" cy="61.15" r="0.66" opacity="0.04"/>
    <circle cx="82.73" cy="54.74" r="0.75" opacity="0.05"/>
    <circle cx="47.49" cy="26.16" r="0.42" opacity="0.046"/>
    <circle cx="76.32" cy="52.11" r="0.61" opacity="0.031"/>
    <circle cx="8.17" cy="28.79" r="0.44" opacity="0.033"/>
    <circle cx="53.98" cy="14.2" r="0.42" opacity="0.048"/>
    <circle cx="70.44" cy="6.86" r="0.5" opacity="0.042"/>
    <circle cx="41.66" cy="20.98" r="0.51" opacity="0.056"/>
    <circle cx="58.32" cy="69.36" r="0.73" opacity="0.051"/>
    <circle cx="38.16" cy="1.08" r="0.48" opacity="0.05"/>
    <circle cx="84.99" cy="94.89" r="0.51" opacity="0.05"/>
    <circle cx="54.57" cy="60.22" r="0.41" opacity="0.029"/>
    <circle cx="43.65" cy="3.37" r="0.47" opacity="0.047"/>
    <circle cx="40.53" cy="16.84" r="0.53" opacity="0.025"/>
    <circle cx="62.1" cy="3.17" r="0.5" opacity="0.043"/>
    <circle cx="3.18" cy="64.13" r="0.37" opacity="0.038"/>
    <circle cx="5.48" cy="38.03" r="0.41" opacity="0.033"/>
    <circle cx="75.86" cy="38.03" r="0.68" opacity="0.053"/>
    <circle cx="25.47" cy="8.61" r="0.31" opacity="0.042"/>
    <circle cx="99.49" cy="35.15" r="0.63" opacity="0.051"/>
    <circle cx="65.02" cy="75.17" r="0.77" opacity="0.028"/>
    <circle cx="2.52" cy="15.59" r="0.36" opacity="0.047"/>
    <circle cx="56.33" cy="22.08" r="0.65" opacity="0.051"/>
    <circle cx="17.11" cy="60.62" r="0.67" opacity="0.025"/>
    <circle cx="81.61" cy="96.01" r="0.35" opacity="0.021"/>
    <circle cx="31.38" cy="67.56" r="0.78" opacity="0.036"/>
    <circle cx="71.29" cy="8.02" r="0.65" opacity="0.045"/>
    <circle cx="10.59" cy="76.98" r="0.73" opacity="0.044"/>
    <circle cx="12.48" cy="97.9" r="0.69" opacity="0.034"/>
    <circle cx="42.91" cy="37.19" r="0.55" opacity="0.034"/>
    <circle cx="84.61" cy="81.91" r="0.35" opacity="0.058"/>
    <circle cx="63.42" cy="82.54" r="0.65" opacity="0.037"/>
    <circle cx="73.15" cy="96.08" r="0.44" opacity="0.052"/>
    <circle cx="53.78" cy="48.37" r="0.52" opacity="0.049"/>
    <circle cx="27.07" cy="84.82" r="0.72" opacity="0.023"/>
    <circle cx="87.78" cy="24.64" r="0.53" opacity="0.044"/>
    <circle cx="38.02" cy="3.34" r="0.73" opacity="0.027"/>
    <circle cx="21.5" cy="79.49" r="0.47" opacity="0.055"/>
    <circle cx="69.92" cy="27.85" r="0.31" opacity="0.058"/>
    <circle cx="8.98" cy="71.79" r="0.54" opacity="0.05"/>
    <circle cx="68.87" cy="64.44" r="0.55" opacity="0.052"/>
    <circle cx="9.71" cy="22.44" r="0.65" opacity="0.032"/>
    <circle cx="58.07" cy="47.35" r="0.57" opacity="0.037"/>
    <circle cx="74.35" cy="33.25" r="0.65" opacity="0.031"/>
    <circle cx="25.39" cy="12.44" r="0.4" opacity="0.025"/>
    <circle cx="53.55" cy="75.96" r="0.39" opacity="0.029"/>
    <circle cx="48.44" cy="72.23" r="0.79" opacity="0.041"/>
    <circle cx="28.52" cy="10.45" r="0.4" opacity="0.029"/>
    <circle cx="18.26" cy="1.9" r="0.57" opacity="0.031"/>
    <circle cx="96.96" cy="55.28" r="0.65" opacity="0.025"/>
    <circle cx="86.48" cy="49.1" r="0.74" opacity="0.043"/>
    <circle cx="46.97" cy="44.11" r="0.39" opacity="0.022"/>
    <circle cx="93.67" cy="47.8" r="0.71" opacity="0.036"/>
    <circle cx="7.83" cy="62.82" r="0.33" opacity="0.026"/>
    <circle cx="56.22" cy="30.58" r="0.8" opacity="0.025"/>
    <circle cx="76.18" cy="60.53" r="0.7" opacity="0.029"/>
    <circle cx="52.23" cy="45.1" r="0.52" opacity="0.054"/>
    <circle cx="98.51" cy="30.73" r="0.61" opacity="0.044"/>
    <circle cx="73.77" cy="94.31" r="0.4" opacity="0.028"/>
    <circle cx="65.88" cy="16.05" r="0.39" opacity="0.023"/>
    <circle cx="0.76" cy="45.1" r="0.6" opacity="0.032"/>
    <circle cx="23.42" cy="70.49" r="0.65" opacity="0.038"/>
    <circle cx="68.55" cy="91.97" r="0.69" opacity="0.045"/>
    <circle cx="65.96" cy="92.93" r="0.51" opacity="0.042"/>
    <circle cx="64.62" cy="90.43" r="0.71" opacity="0.023"/>
    <circle cx="16.93" cy="30.95" r="0.67" opacity="0.043"/>
    <circle cx="29.07" cy="12.81" r="0.64" opacity="0.048"/>
    <circle cx="93.82" cy="50.05" r="0.55" opacity="0.023"/>
    <circle cx="4.45" cy="43.27" r="0.46" opacity="0.03"/>
  </g>
</svg>
